{
	"asset":{
		"generator":"Khronos glTF Blender I/O v4.0.44",
		"version":"2.0"
	},
	"scene":0,
	"scenes":[
		{
			"name":"Scene",
			"nodes":[
				0,
				1,
				2,
				3,
				4
			]
		}
	],
	"nodes":[
		{
			"mesh":0,
			"name":"TestWall",
			"scale":[
				0.10000002384185791,
				1,
				1
			],
			"translation":[
				0.03544316440820694,
				0.5375001430511475,
				0
			]
		},
		{
			"mesh":1,
			"name":"TestWall.Corner",
			"scale":[
				0.10000002384185791,
				1,
				1
			],
			"translation":[
				-0.3097783327102661,
				0.5375000238418579,
				-0.6902217268943787
			]
		},
		{
			"mesh":2,
			"name":"TestWall.Window",
			"scale":[
				0.10000002384185791,
				1,
				1
			],
			"translation":[
				0.03544316440820694,
				0.5375001430511475,
				0
			]
		},
		{
			"mesh":3,
			"name":"TestWall.Door",
			"scale":[
				0.10000002384185791,
				1,
				1
			],
			"translation":[
				0.03544316440820694,
				0.5375001430511475,
				0
			]
		},
		{
			"mesh":4,
			"name":"TestFloor-col",
			"scale":[
				1,
				0.10000000149011612,
				1
			]
		}
	],
	"materials":[
		{
			"doubleSided":true,
			"name":"Material",
			"pbrMetallicRoughness":{
				"baseColorFactor":[
					0.800000011920929,
					0.800000011920929,
					0.800000011920929,
					1
				],
				"metallicFactor":0,
				"roughnessFactor":0.5
			}
		},
		{
			"doubleSided":true,
			"name":"Material.012",
			"pbrMetallicRoughness":{
				"baseColorFactor":[
					0.800000011920929,
					0.800000011920929,
					0.800000011920929,
					1
				],
				"metallicFactor":0,
				"roughnessFactor":0.5
			}
		},
		{
			"doubleSided":true,
			"name":"Material.011",
			"pbrMetallicRoughness":{
				"baseColorFactor":[
					0.800000011920929,
					0.800000011920929,
					0.800000011920929,
					1
				],
				"metallicFactor":0,
				"roughnessFactor":0.5
			}
		},
		{
			"doubleSided":true,
			"name":"Material.020",
			"pbrMetallicRoughness":{
				"baseColorFactor":[
					0.800000011920929,
					0.800000011920929,
					0.800000011920929,
					1
				],
				"metallicFactor":0,
				"roughnessFactor":0.5
			}
		},
		{
			"doubleSided":true,
			"name":"Window",
			"pbrMetallicRoughness":{
				"baseColorFactor":[
					0.003929871134459972,
					0.05887146294116974,
					0.3770720660686493,
					0.3968254029750824
				],
				"metallicFactor":0.2063492089509964,
				"roughnessFactor":0.2142857015132904
			}
		},
		{
			"doubleSided":true,
			"name":"Material.022",
			"pbrMetallicRoughness":{
				"baseColorFactor":[
					0.800000011920929,
					0.800000011920929,
					0.800000011920929,
					1
				],
				"metallicFactor":0,
				"roughnessFactor":0.5
			}
		}
	],
	"meshes":[
		{
			"name":"Cube",
			"primitives":[
				{
					"attributes":{
						"POSITION":0,
						"NORMAL":1,
						"TEXCOORD_0":2,
						"TANGENT":3
					},
					"indices":4,
					"material":0
				}
			]
		},
		{
			"name":"Cube.010",
			"primitives":[
				{
					"attributes":{
						"POSITION":5,
						"NORMAL":6,
						"TEXCOORD_0":7
					},
					"indices":8,
					"material":1
				},
				{
					"attributes":{
						"POSITION":9,
						"NORMAL":10,
						"TEXCOORD_0":11
					},
					"indices":12,
					"material":2
				}
			]
		},
		{
			"name":"Cube.015",
			"primitives":[
				{
					"attributes":{
						"POSITION":13,
						"NORMAL":14,
						"TEXCOORD_0":15,
						"TANGENT":16
					},
					"indices":17,
					"material":3
				},
				{
					"attributes":{
						"POSITION":18,
						"NORMAL":19,
						"TEXCOORD_0":20,
						"TANGENT":21
					},
					"indices":22,
					"material":4
				}
			]
		},
		{
			"name":"Cube.017",
			"primitives":[
				{
					"attributes":{
						"POSITION":23,
						"NORMAL":24,
						"TEXCOORD_0":25
					},
					"indices":26,
					"material":5
				}
			]
		},
		{
			"name":"Cube.018",
			"primitives":[
				{
					"attributes":{
						"POSITION":27,
						"NORMAL":28,
						"TEXCOORD_0":29,
						"TANGENT":30
					},
					"indices":31
				}
			]
		}
	],
	"accessors":[
		{
			"bufferView":0,
			"componentType":5126,
			"count":44,
			"max":[
				1.0632946491241455,
				1.4624998569488525,
				1
			],
			"min":[
				-1.3544316291809082,
				-0.5375001430511475,
				-1
			],
			"type":"VEC3"
		},
		{
			"bufferView":1,
			"componentType":5126,
			"count":44,
			"type":"VEC3"
		},
		{
			"bufferView":2,
			"componentType":5126,
			"count":44,
			"type":"VEC2"
		},
		{
			"bufferView":3,
			"componentType":5126,
			"count":44,
			"type":"VEC4"
		},
		{
			"bufferView":4,
			"componentType":5123,
			"count":84,
			"type":"SCALAR"
		},
		{
			"bufferView":5,
			"componentType":5126,
			"count":44,
			"max":[
				4.515509128570557,
				1.4624998569488525,
				0.6902217268943787
			],
			"min":[
				2.097782611846924,
				-0.5375000238418579,
				-0.4506646394729614
			],
			"type":"VEC3"
		},
		{
			"bufferView":6,
			"componentType":5126,
			"count":44,
			"type":"VEC3"
		},
		{
			"bufferView":7,
			"componentType":5126,
			"count":44,
			"type":"VEC2"
		},
		{
			"bufferView":8,
			"componentType":5123,
			"count":84,
			"type":"SCALAR"
		},
		{
			"bufferView":9,
			"componentType":5126,
			"count":44,
			"max":[
				4.506647109985352,
				1.4624998569488525,
				-0.20977835357189178
			],
			"min":[
				-6.902213096618652,
				-0.5375000238418579,
				-0.4515511989593506
			],
			"type":"VEC3"
		},
		{
			"bufferView":10,
			"componentType":5126,
			"count":44,
			"type":"VEC3"
		},
		{
			"bufferView":11,
			"componentType":5126,
			"count":44,
			"type":"VEC2"
		},
		{
			"bufferView":12,
			"componentType":5123,
			"count":84,
			"type":"SCALAR"
		},
		{
			"bufferView":13,
			"componentType":5126,
			"count":240,
			"max":[
				1.0632946491241455,
				1.4624998569488525,
				1
			],
			"min":[
				-1.6537142992019653,
				-0.5375001430511475,
				-1
			],
			"type":"VEC3"
		},
		{
			"bufferView":14,
			"componentType":5126,
			"count":240,
			"type":"VEC3"
		},
		{
			"bufferView":15,
			"componentType":5126,
			"count":240,
			"type":"VEC2"
		},
		{
			"bufferView":16,
			"componentType":5126,
			"count":240,
			"type":"VEC4"
		},
		{
			"bufferView":17,
			"componentType":5123,
			"count":552,
			"type":"SCALAR"
		},
		{
			"bufferView":18,
			"componentType":5126,
			"count":4,
			"max":[
				0.6847277879714966,
				1.0460805892944336,
				0.35648804903030396
			],
			"min":[
				0.6847277879714966,
				-0.021081119775772095,
				-0.35648804903030396
			],
			"type":"VEC3"
		},
		{
			"bufferView":19,
			"componentType":5126,
			"count":4,
			"type":"VEC3"
		},
		{
			"bufferView":20,
			"componentType":5126,
			"count":4,
			"type":"VEC2"
		},
		{
			"bufferView":21,
			"componentType":5126,
			"count":4,
			"type":"VEC4"
		},
		{
			"bufferView":22,
			"componentType":5123,
			"count":6,
			"type":"SCALAR"
		},
		{
			"bufferView":23,
			"componentType":5126,
			"count":104,
			"max":[
				1.0632946491241455,
				1.4624998569488525,
				1
			],
			"min":[
				-1.3544316291809082,
				-0.5375001430511475,
				-1
			],
			"type":"VEC3"
		},
		{
			"bufferView":24,
			"componentType":5126,
			"count":104,
			"type":"VEC3"
		},
		{
			"bufferView":25,
			"componentType":5126,
			"count":104,
			"type":"VEC2"
		},
		{
			"bufferView":26,
			"componentType":5123,
			"count":228,
			"type":"SCALAR"
		},
		{
			"bufferView":27,
			"componentType":5126,
			"count":24,
			"max":[
				1,
				1,
				1
			],
			"min":[
				-1,
				-1,
				-1
			],
			"type":"VEC3"
		},
		{
			"bufferView":28,
			"componentType":5126,
			"count":24,
			"type":"VEC3"
		},
		{
			"bufferView":29,
			"componentType":5126,
			"count":24,
			"type":"VEC2"
		},
		{
			"bufferView":30,
			"componentType":5126,
			"count":24,
			"type":"VEC4"
		},
		{
			"bufferView":31,
			"componentType":5123,
			"count":36,
			"type":"SCALAR"
		}
	],
	"bufferViews":[
		{
			"buffer":0,
			"byteLength":528,
			"byteOffset":0,
			"target":34962
		},
		{
			"buffer":0,
			"byteLength":528,
			"byteOffset":528,
			"target":34962
		},
		{
			"buffer":0,
			"byteLength":352,
			"byteOffset":1056,
			"target":34962
		},
		{
			"buffer":0,
			"byteLength":704,
			"byteOffset":1408,
			"target":34962
		},
		{
			"buffer":0,
			"byteLength":168,
			"byteOffset":2112,
			"target":34963
		},
		{
			"buffer":0,
			"byteLength":528,
			"byteOffset":2280,
			"target":34962
		},
		{
			"buffer":0,
			"byteLength":528,
			"byteOffset":2808,
			"target":34962
		},
		{
			"buffer":0,
			"byteLength":352,
			"byteOffset":3336,
			"target":34962
		},
		{
			"buffer":0,
			"byteLength":168,
			"byteOffset":3688,
			"target":34963
		},
		{
			"buffer":0,
			"byteLength":528,
			"byteOffset":3856,
			"target":34962
		},
		{
			"buffer":0,
			"byteLength":528,
			"byteOffset":4384,
			"target":34962
		},
		{
			"buffer":0,
			"byteLength":352,
			"byteOffset":4912,
			"target":34962
		},
		{
			"buffer":0,
			"byteLength":168,
			"byteOffset":5264,
			"target":34963
		},
		{
			"buffer":0,
			"byteLength":2880,
			"byteOffset":5432,
			"target":34962
		},
		{
			"buffer":0,
			"byteLength":2880,
			"byteOffset":8312,
			"target":34962
		},
		{
			"buffer":0,
			"byteLength":1920,
			"byteOffset":11192,
			"target":34962
		},
		{
			"buffer":0,
			"byteLength":3840,
			"byteOffset":13112,
			"target":34962
		},
		{
			"buffer":0,
			"byteLength":1104,
			"byteOffset":16952,
			"target":34963
		},
		{
			"buffer":0,
			"byteLength":48,
			"byteOffset":18056,
			"target":34962
		},
		{
			"buffer":0,
			"byteLength":48,
			"byteOffset":18104,
			"target":34962
		},
		{
			"buffer":0,
			"byteLength":32,
			"byteOffset":18152,
			"target":34962
		},
		{
			"buffer":0,
			"byteLength":64,
			"byteOffset":18184,
			"target":34962
		},
		{
			"buffer":0,
			"byteLength":12,
			"byteOffset":18248,
			"target":34963
		},
		{
			"buffer":0,
			"byteLength":1248,
			"byteOffset":18260,
			"target":34962
		},
		{
			"buffer":0,
			"byteLength":1248,
			"byteOffset":19508,
			"target":34962
		},
		{
			"buffer":0,
			"byteLength":832,
			"byteOffset":20756,
			"target":34962
		},
		{
			"buffer":0,
			"byteLength":456,
			"byteOffset":21588,
			"target":34963
		},
		{
			"buffer":0,
			"byteLength":288,
			"byteOffset":22044,
			"target":34962
		},
		{
			"buffer":0,
			"byteLength":288,
			"byteOffset":22332,
			"target":34962
		},
		{
			"buffer":0,
			"byteLength":192,
			"byteOffset":22620,
			"target":34962
		},
		{
			"buffer":0,
			"byteLength":384,
			"byteOffset":22812,
			"target":34962
		},
		{
			"buffer":0,
			"byteLength":72,
			"byteOffset":23196,
			"target":34963
		}
	],
	"buffers":[
		{
			"byteLength":23268,
			"uri":"TestWalls-e43feb3f3a2d7ea171a190f124114e8b.bin"
		}
	]
}
